<svg width="728" height="853" xmlns="http://www.w3.org/2000/svg"><g fill="none" fill-rule="evenodd"><path d="M657.745 544h45.841c5.377 0 10.414 2.826 10.414 8.3-.504 39.52-.674 79.547-.34 120.068 0 5.48-2.351 9.3-7.892 9.3l-50.04.332c-5.377 0-7.728-3.49-7.728-8.963V553.795c.005-5.31 4.374-9.795 9.745-9.795z" fill="#7686C2"/><path d="M9 246l-7.98 13-.02-2.905C1 250.86 4.494 246.65 9 246z" fill="#C9D9EF"/><path d="M1 257.436l7.864-12.35c.4-.054.799-.086 1.208-.086l6.928.021L1.087 270 1 257.436z" fill="#C9D9EF"/><path fill="#C7D6EE" d="M1 270.775L17.688 246l8.312.032L1.091 283zM1 283.332L26.325 246l8.675.027L1.098 296z"/><path fill="#C7D6EE" d="M1 295.786L34.663 246l8.337.027L1.098 308z"/><path fill="#C4D3ED" d="M1 308.31L42.475 246l8.525.032L1.097 321z"/><path fill="#C4D3ED" d="M1 320.47L51.535 245l8.465.027L1.098 333z"/><path fill="#C2D2EC" d="M1 333.336L59.534 245l8.466.033L1.097 346z"/><path fill="#C2D1EB" d="M1 345.59L67.623 246l8.377.027L1.091 358z"/><path fill="#C2D1EB" d="M1 358.528L75.652 246l8.348.027L1.096 371z"/><path fill="#BFCEEA" d="M2 371.404L84.626 246l8.374.032L2.096 384z"/><path fill="#BFCEEA" d="M2 383.525L94.526 246l8.474.027L2.092 396z"/><path fill="#BDCDEA" d="M2 395.263L102.416 245l8.584.027L2.097 408z"/><path fill="#BDCDEA" d="M2 408.615L110.691 245l8.309.033L2.097 421z"/><path fill="#BDCCE9" d="M2 420.327L118.46 246l8.54.027L2.097 433z"/><path fill="#BDCCE9" d="M2 433.582L126.699 246l8.301.032L2.097 446z"/><path fill="#BBC9E7" d="M2 446.368L135.475 246l8.525.027L2.097 459z"/><path fill="#BBC9E7" d="M2 457.53L143.616 245l8.384.027L2.091 470zM2 470.316L153.433 245l8.567.032L2.098 483z"/><path fill="#B8C6E6" d="M2 483.646L160.64 246l8.36.027L2.097 496z"/><path fill="#B8C6E6" d="M2 495.318L170.356 246l8.644.027L2.098 508z"/><path fill="#B6C6E6" d="M2 508.688L178.645 246l8.355.032L2.092 521z"/><path fill="#B6C6E6" d="M2 521.27L186.392 246l8.608.027L2.097 534z"/><path fill="#B6C4E5" d="M2 533.49L194.574 245l8.426.032L2.097 546z"/><path fill="#B3C3E5" d="M2 545.652L203.547 246l8.453.022L2.098 558z"/><path fill="#B3C2E3" d="M2 558.346L211.509 246l8.491.032L2.097 571z"/><path fill="#B1C1E3" d="M2 571.51L220.539 246l8.461.032L2.098 584z"/><path fill="#B1C1E3" d="M2 583.447L228.5 246l8.5.027L2.092 596z"/><path fill="#B1BFE2" d="M2 596.51L237.531 246l8.469.027L2.098 609z"/><path fill="#B1BFE2" d="M3 608.256L246.381 245l8.619.027L3.098 621z"/><path fill="#AEBEE2" d="M3 620.709L254.665 246l8.335.032L3.092 633z"/><path fill="#AFBDE1" d="M3 633.283L262.411 246l8.589.027L3.097 646z"/><path fill="#ACBCE1" d="M5 646.54L272.657 246l8.343.027L5.097 659z"/><path fill="#ACBCE1" d="M4 658.422L280.43 246l8.57.032L4.097 671z"/><path fill="#ACBAE0" d="M3 670.52L288.546 245l8.454.032L3.092 683z"/><path fill="#AABADF" d="M3 683.42L296.493 245l2.87.005 5.637.011L3.103 696z"/><path fill="#AAB8DE" d="M3 695.541L304.557 246l8.443.01L3.092 708z"/><path fill="#A7B7DE" d="M3 709.29L313.381 247l8.619.016L3.098 722z"/><path fill="#A7B7DE" d="M3 721.677L321.658 246l8.342.01L3.097 734zM3 735.265L329.401 247l8.599.016L3.092 748z"/><path fill="#A5B5DD" d="M5 747.52L339.572 247l8.428.016L5.103 760z"/><path fill="#A5B5DD" d="M6 758.689L348.564 246l8.436.01L6.092 771z"/><path d="M4 770.736L356.504 245l8.496.01L7.094 779c-1.848-1.843-3.078-4.2-3.078-6.637L4 770.736zM8 779.604L364.573 247l8.427.01L14.16 783c-2.252-.458-4.465-1.704-6.16-3.396zM14 783.8L374.48 246l8.52.01L22.39 784l-6.53-.005A9.92 9.92 0 0114 783.8z" fill="#A3B2DC"/><path fill="#A3B1DA" d="M22 783.984L382.536 246l8.464.016L30.464 784z"/><path fill="#A1B0DA" d="M30 783.984L390.372 246l8.628.01L38.628 784z"/><path fill="#A1B0DA" d="M38 783.99L398.648 246l8.352.016L46.352 784zM47 783.984L407.372 246l8.628.01L55.628 784z"/><path fill="#9EAED9" d="M56 783.984L416.621 246l8.379.016L64.46 784zM65 783.99L425.402 246l8.598.01L73.522 784z"/><path fill="#9CABD8" d="M74 783.984L434.531 246l8.469.016L82.458 784z"/><path fill="#9CABD8" d="M82 783.984L442.484 246l8.516.016L90.522 784z"/><path fill="#9CABD8" d="M90 783.995L450.531 246l8.469.01L98.464 784z"/><path fill="#9CABD8" d="M98 783.984L458.378 246l8.622.01L106.622 784z"/><path fill="#9AABD8" d="M106 783.984L466.642 246l8.358.016L114.358 784z"/><path fill="#9AA9D6" d="M115 783.99L475.378 246l8.622.01L123.622 784z"/><path fill="#9AA9D6" d="M123 783.984L483.536 246l8.464.016L131.464 784zM132 783.984L492.51 246l8.49.01L140.37 784z"/><path fill="#98A7D5" d="M140 783.984L500.513 246l8.487.016L148.612 784zM150 783.99L510.536 246l8.464.016L158.458 784z"/><path fill="#98A7D5" d="M158 783.984L518.478 246l8.522.01L166.516 784z"/><path fill="#98A7D5" d="M166 783.99L526.542 246l8.458.01L174.469 784z"/><path fill="#96A6D5" d="M174 783.984L534.372 246l8.628.016L182.622 784z"/><path fill="#96A5D4" d="M182 783.984L542.642 246l8.358.01L190.352 784zM192 783.99L552.372 246l8.628.016L200.628 784z"/><path fill="#93A4D4" d="M200 783.984L560.637 246l8.363.01L208.45 784z"/><path fill="#94A3D3" d="M208 783.984L568.381 246l8.619.016L216.532 784z"/><path fill="#94A3D3" d="M216 783.99L576.537 246l8.463.016L224.463 784zM225 783.99L585.489 246l8.511.01L233.516 784zM234 783.984L594.531 246l8.469.01L242.463 784z"/><path fill="#91A2D3" d="M243 784.99L603.378 247l8.622.016L251.628 785z"/><path fill="#92A0D1" d="M252 784.984L612.642 247l8.358.01L260.358 785z"/><path fill="#92A0D1" d="M260 784.99L620.372 247l8.628.016L268.622 785z"/><path fill="#8FA0D1" d="M268 784.984L628.537 247l8.463.01L276.463 785z"/><path fill="#8FA0D1" d="M276 784.984L636.494 247l8.506.016L284.381 785z"/><path fill="#909ED0" d="M284 784.984L644.529 247l8.471.016L292.596 785z"/><path fill="#909ED0" d="M292 784.99L652.537 247l8.463.01L300.463 785zM301 784.984L661.484 247l8.516.01L309.516 785z"/><path fill="#8D9ED0" d="M310 784.984L670.537 247l8.463.01L318.463 785zM319 784.99L679.372 247l8.628.016L327.622 785z"/><path fill="#8E9CCF" d="M328 784.984L688.648 247l8.352.016L336.357 785z"/><path fill="#8E9CCF" d="M336 784.99L696.372 247l8.628.016L344.628 785z"/><path fill="#8E9CCF" d="M344 784.984L704.643 247l8.357.01L352.439 785z"/><path d="M352 784.984L712.868 247l1.66.005c1.776 0 3.702.882 5.472 2.256L360.554 785l-8.554-.016zM362 783.99L720.234 249c1.872 1.448 3.57 3.435 4.766 5.515L370.445 784l-8.445-.01z" fill="#8C9ACE"/><path d="M370 782.978L724.286 254c1.06 1.856 1.714 3.772 1.714 5.429l-.038 4.748L378.492 783l-8.492-.022z" fill="#8C9ACE"/><path fill="#8999CE" d="M378 784.99L726 265l-.087 12.78L386.451 785z"/><path fill="#8999CE" d="M386 782.984L726 277l-.092 12.992L394.627 783z"/><path fill="#8998CC" d="M395 783.99L726 290l-.092 12.607L403.348 784z"/><path fill="#8998CC" d="M403 783.984L726 303l-.092 13.012L411.637 784zM413 784.984L726 317l-.086 12.758L421.429 785z"/><path fill="#8797CC" d="M422 784.99L726 329l-.092 12.838L430.356 785z"/><path fill="#8797CC" d="M430 783.984L726 342l-.092 12.772L438.553 784z"/><path fill="#8896CB" d="M438 783.984L726 354l-.092 12.762L446.453 784z"/><path fill="#8595CB" d="M446 784.99L726 368l-.087 12.846L454.523 785z"/><path fill="#8595CB" d="M454 784.984L726 380l-.092 12.791L462.494 785z"/><path fill="#8694CA" d="M465 784.984L726 393l-.092 12.892L473.534 785z"/><path fill="#8694CA" d="M473 783.99L726 406l-.086 12.714L481.356 784z"/><path fill="#8393CA" d="M481 782.984L726 418l-.097 12.984L489.614 783zM489 784.984L726 432l-.087 12.63L497.44 785z"/><path fill="#8393CA" d="M498 784.99L726 444l-.092 13.005L506.54 785z"/><path fill="#8492C9" d="M506 783.99L726 457l-.092 12.755L514.478 784z"/><path fill="#8191C9" d="M514 782.984L724 469l-.086 12.825L522.48 783zM523 784.99L724 483l-.092 12.773L531.398 785z"/><path fill="#8290C8" d="M532 784.984L725 496l-.092 13.01L540.592 785z"/><path fill="#8290C8" d="M540 784.984L725 509l-.092 12.595L548.342 785z"/><path fill="#7F8FC8" d="M548 782.99L725 521l-.092 12.94L556.645 783z"/><path fill="#7F8FC8" d="M557 784.984L724 535l-.086 12.751L565.414 785z"/><path fill="#7F8FC8" d="M565 784.99L723 547l-.091 12.613L573.279 785z"/><path fill="#7E8DC7" d="M574 784.984L724 560l-.092 13.006L582.564 785zM583 784.984L725 572l-.092 12.817L591.452 785z"/><path fill="#7E8DC7" d="M591 783.984L724 585l-.092 12.827L599.472 784zM600 784.99L725 599l-.087 12.728L608.456 785z"/><path fill="#7E8CC6" d="M608 784.984L725 612l-.093 12.852L616.615 785z"/><path fill="#7C8BC5" d="M616 784.99L723 623l-.086 12.798L624.334 785z"/><path fill="#7C8BC5" d="M624 784.984L722 636l-.096 13.084L632.499 785z"/><path fill="#7C8BC5" d="M632 784.99L722 650l-.091 12.649L640.357 785z"/><path fill="#798BC5" d="M640 784.984L722 662l-.087 12.996L648.543 785z"/><path fill="#7A89C4" d="M648 784.99L722 675l-.093 12.81L656.524 785zM658 784.984L724 688l-.088 12.87L666.654 785z"/><path fill="#7A89C4" d="M667 784.984L723 702l-.097 12.614L675.41 785z"/><path fill="#7A88C3" d="M675 784.99L722 714l-.09 12.965L683.482 785z"/><path fill="#7888C3" d="M683 784.984L722 726l-.087 12.755L691.333 785zM692 784.984L722 739l-.09 12.983L700.367 785z"/><path fill="#7888C3" d="M700 784.989L722 751l-.087 13.354L708.55 785z"/><path d="M708 785l14-20-.08 10.39c0 1.02-.17 1.997-.477 2.914l-3.084 4.412a10.36 10.36 0 01-6.531 2.284H708z" fill="#7888C3"/><path d="M719.371 783.439l3.258-4.878a10.727 10.727 0 01-3.258 4.878z" fill="#7886C2"/><path d="M10.612 245l289.872.99 414.577.664c5.304 0 11.939 7.927 11.939 13.214l-3.648 515.557c0 5.287-4.313 9.575-9.617 9.575l-697.646-1.152c-5.304 0-11.111-4.958-11.111-10.245L1 254.743C.995 249.293 5.308 245 10.612 245h0z" stroke="#000" stroke-width=".424"/><path d="M21.343 252.174L713.99 248c7.34 0 13.011 8.512 13.011 15.86l-5.507 505.116c0 10.014-6.166 15.024-16.173 15.024l-683.481 2C14.503 786 8.5 779.99 8.5 772.647L8 265.532c.005-7.348 6.008-13.358 13.343-13.358z" fill="#8CA4D5"/><path d="M682.076 323.36c21.893-3.264 34.922 16.325 34.922 31.501.17 16.154-13.531 28.232-26.567 29.867-18.887 2.452-34.257-12.078-32.255-26.603 1.5-10.614 13.03-32.97 23.9-34.765zM50.29 285l581.416.498c4.643 0 7.294 2.98 7.294 7.612l-2.321 445.416c0 4.632-2.321 12.916-9.615 11.258l-576.77-4.47c-4.642-.162-8.294-3.808-8.294-8.445V293.44c-.005-4.632 3.647-8.441 8.29-8.441z" fill="#7686C2"/><path d="M434.153 245.008c-1.987-17.2-13.399-30.107-28.79-37.882-9.932-4.964-21.51-7.937-33.263-8.435-11.751-.666-23.832.991-34.418 5.127-17.54 6.784-31.61 20.178-36.405 41.022l132.876.168h0zM536.581 1.028c8.44.498 14.889 7.444 14.392 15.549-.497 8.104-7.61 14.39-16.05 14.06-.335-.163-.665-.163-.994-.163l-1.49 1.982-1.486 11.25v.336l-.162.162h0c-.999 1.159-1.987 2.48-2.981 3.806-2.322 3.308-4.801 6.616-6.621 7.114l-24.654 7.444c-.167.163-1.16 1.159-2.646 2.81-1.82 1.987-4.142 4.629-6.95 7.774-14.231 16.21-38.723 45.488-39.55 51.774h0c-.334 2.15-.161 10.752 0 20.015 0 11.911.163 24.813-.663 26.134l-26.474 43.338c9.105 8.105 15.224 18.695 16.38 31.596V247h-1.156l-135.69-.168h-1.49l.497-1.158c2.814-14.055 9.764-24.975 19.194-32.917l-7.777-8.105s-3.473-.168-6.616-.168h-3.473 0c-4.471.33-10.92 0-17.373-.335-3.31 0-6.449-.163-9.435-.33-.664 0-7.615 4.628-14.398 9.095-3.31 2.15-6.621 4.298-9.267 6.117l-.665.336h0c-1.485.99-3.97 1.327-6.286 1.153-.335-.162-.832-.162-1.323-.162-.497-.168-.832-.168-1.323-.33-.168 0-.497-.168-.827-.168-7.112-2.48-14.063-5.457-21.019-8.273-3.31-1.483-6.783-2.977-10.423-4.298h0c-.993-.498-11.087-14.06-21.348-27.46-9.1-12.24-18.368-24.476-20.355-26.631l-8.106-.163-22.343 14.223c-.993 8.435-8.273 14.558-16.714 14.06-8.77-.33-15.387-7.942-14.89-16.54.497-8.765 7.94-15.549 16.71-15.05 8.106.498 14.398 6.946 14.894 14.888l21.511-13.73.167-.162h.497l8.77.162c.498.168.827.33 1.157.666h0c1.987 2.15 11.254 14.39 20.516 26.799 10.094 13.232 20.026 26.631 20.355 26.794h0c3.478 1.326 6.95 2.815 10.429 4.298 6.95 2.978 13.9 5.788 21.019 8.273.167 0 .33 0 .664.162.33 0 .664.163.994.163.497 0 .826.168 1.155.168 1.82.167 3.808 0 4.802-.66h0l.826-.494c2.646-1.656 5.79-3.806 9.105-5.955 7.28-4.797 14.393-9.593 15.721-9.593 2.981.162 6.292.33 9.435.492 6.454.168 12.74.498 17.212.168h3.64c3.64.168 7.777.33 8.273.828l7.945 8.267c5.13-3.968 10.758-7.113 17.044-9.593 10.92-4.299 23.325-5.955 35.412-5.295 12.08.666 23.832 3.638 34.093 8.765 4.467 2.15 8.442 4.802 12.076 7.775l26.474-43.171c.335-.66.167-13.232.167-24.812-.167-9.264-.167-18.029 0-20.346h0c.827-6.784 25.81-36.555 40.208-52.932 2.813-3.146 5.13-5.956 6.95-7.775 1.82-1.987 2.981-3.308 3.305-3.475h.168l24.988-7.445c.994-.33 3.143-3.308 5.293-6.285.994-1.327 1.982-2.648 2.814-3.638l1.323-11.25.167-.33.162-.169.994-1.32c-6.621-1.988-11.25-8.105-10.915-15.057.475-8.088 7.593-14.38 16.035-13.881h0z" stroke="#000" stroke-width=".092" fill="#000" fill-rule="nonzero"/><path d="M50.296 285l574.409.498c4.638 0 7.295 2.978 7.295 7.444l-2.322 439.796c0 4.466-1.661 10.426-6.137 10.259l-573.245-3.638c-4.643 0-8.296-3.8-8.296-8.267v-437.82c0-4.466 3.653-8.272 8.296-8.272z" fill="#4E8ABE"/><path d="M50.296 287l574.409.497c4.638 0 7.295 2.968 7.295 7.421l-11.939 432.22c-.162 6.26-6.299 10.228-12.598 10.39L50.296 740c-4.643 0-8.296-3.789-8.296-8.242v-436.51c0-4.454 3.653-8.248 8.296-8.248z" fill="#5261AC"/><path d="M581.89 704.247L617 732M62.14 302.665l34.618 29.402M91.623 698.96L58 726.712M611.87 302l-37.104 30.89" stroke="#000" stroke-width=".424" stroke-linecap="round" stroke-linejoin="round"/><path d="M437 246c-5.311-60.309-121.882-70.114-136-.163L437 246h0z" stroke="#000" stroke-width=".424" fill="#BCBEC0"/><path d="M435 244c-7.123-52.932-103.25-64.135-118 0h118z" fill="#939598"/><path d="M50.46 284l575.072.497c1.825 0 3.315.329 4.48.988.499.329.83.658 1.328.987.336.335.66.664.997 1.156a9.615 9.615 0 011.663 5.441l-2.324 438.551c0 .335 0 .502-.168.826 0 2.143-.499 4.616-1.328 6.43-.997 2.143-2.655 3.795-4.979 4.124h-.829l-573.907-3.628h-.834c-.666-.162-1.327-.329-1.994-.496-.666-.162-1.327-.492-1.826-.826-2.99-1.48-4.811-4.61-4.811-8.076v-436.58c0-1.653.493-3.3 1.16-4.616.335-.664.666-.988 1.164-1.485.33-.497.83-.826 1.328-1.155 1.49-1.312 3.478-2.138 5.808-2.138zm575.072 2.64l-575.072-.33c-1.663 0-3.321.66-4.486 1.485-.336.33-.667.659-.997.988-.33.33-.499.659-.83 1.155a7.626 7.626 0 00-.828 3.46V729.98c0 2.64 1.327 4.95 3.652 6.1.336.335.829.497 1.327.664.499.162.997.33 1.496.33h.666l573.907 3.627h.498c1.495-.162 2.492-1.317 3.153-2.801.83-1.652 1.165-3.634 1.328-5.61v-.663l2.33-438.551c0-1.652-.504-3.137-1.165-4.125-.163-.334-.499-.496-.667-.826-.336-.167-.66-.49-.997-.658-.829-.497-1.988-.826-3.315-.826z" fill="#000" fill-rule="nonzero"/><path d="M672.17 317.49c23.661-3.794 38.828 15.196 38.828 31.868.164 17.834-11.996 26.584-26.163 28.4-20.496 2.642-35.663-16.84-33.657-32.858 1.664-11.89 8.995-25.595 20.992-27.41z" fill="#4E8ABE"/><path d="M679.264 319.39c21.595-3.473 31.734 17.021 31.734 32.226.163 16.362-10.963 24.454-23.758 26.11-18.776 2.477-34.055-12.23-32.065-26.937 1.333-10.91 13.126-29.75 24.089-31.4z" fill="#5261AC"/><path d="M671.816 315.502c2.156-.333 4.15-.502 5.981-.502 9.628 0 17.43 3.505 23.243 9.008 5.808 5.502 9.46 12.845 10.624 20.182.163 1.501.336 3.002.336 4.667v.836c0 2.5-.336 5.006-.834 7.168-.499 2.167-1.16 4.17-2.151 6.005-4.48 9.51-13.783 14.51-24.072 15.678-.828.164-1.825.333-2.654.333-.163.164-.499.164-.83 0-1.49 0-2.822 0-4.155-.17-7.303-.998-13.777-4.667-18.42-9.836-4.649-5.006-7.802-11.508-8.636-17.846-.33-2.337-.33-4.668 0-6.84v-.17c.168-1.665.504-3.335 1.002-5.17.33-1.665.997-3.499 1.663-5.17 3.468-8.838 10.11-16.84 18.903-18.173zm12.618 2.331c-.162 4.171-.498 7.67-.829 10.842-.498 3.505-1.165 6.502-2.156 9.674-.163.666-.829.999-1.49.835-.498-.17-.997-.835-.666-1.501a77.469 77.469 0 001.993-9.34c.499-3.173.661-6.672.83-10.843-1.328-.169-2.823-.169-4.319-.169-1.83 0-3.651.17-5.477.333-8.138 1.338-14.113 8.675-17.272 16.847-.66 1.67-1.16 3.335-1.658 5.006-.498 1.665-.666 3.335-1.002 4.837a41.253 41.253 0 000 6.338c.829 6.005 3.82 12.01 8.137 16.677 2.493 2.67 5.31 4.843 8.631 6.508.666-5.17 1.495-9.505 2.492-13.342.997-4.171 2.156-7.84 3.316-11.175.168-.666.829-1.005 1.495-.836.661.333.997 1 .661 1.502-.997 3.335-2.156 7.004-3.153 11.01-.997 4.008-1.988 8.506-2.655 13.676 1.994.835 3.982 1.332 6.144 1.665 1.327.17 2.492.17 3.82.17 4.643-6.672 7.97-14.009 10.126-22.52 2.324-8.844 3.651-19.014 3.982-31.52-3.148-2.173-6.8-3.838-10.95-4.674zm13.28 6.344c-.5 12.01-1.827 21.847-3.983 30.522-2.156 8.172-5.31 15.176-9.627 21.683h.666c9.46-1.168 18.096-5.835 22.24-14.51.83-1.67 1.496-3.505 1.994-5.503.336-2.167.66-4.334.66-6.67v-.836c0-1.501 0-3.003-.33-4.335-1.002-6.834-4.486-13.675-9.963-18.845-.493-.507-1.16-1.015-1.658-1.506zm-19.586 17.343c.33-.502.829-.835 1.49-.671.666.17.997.835.829 1.501-.336.666-.667 1-.997 1.501-.168.164-.336.333-.336.666-.336.666-.997 1-1.495.836-.661-.333-.997-.836-.824-1.502.33-.666.661-1.168.997-1.5a1.28 1.28 0 00.336-.83z" fill="#000" fill-rule="nonzero"/><path d="M682.076 431.36c21.893-3.264 34.922 16.321 34.922 31.5.17 16.16-13.531 28.24-26.567 29.869-18.887 2.447-34.257-12.08-32.255-26.606 1.5-10.77 13.03-33.133 23.9-34.763z" fill="#7686C2"/><path d="M672.852 426.53c23.653-3.838 38.146 13.841 38.146 30.695.163 18.017-11.992 26.857-26.154 28.527-20.49 2.84-36.815-19.349-34.651-35.532 1.506-12.016 10.666-21.855 22.659-23.69z" fill="#4E8ABE"/><path d="M676.892 426.438c21.596-3.501 35.108 14.66 35.108 30.16 0 16.492-14.835 26.664-27.685 28.158-18.628 2.498-34.119-14.66-32.145-29.494 1.323-11 14.012-27.16 24.722-28.824z" fill="#5261AC"/><path d="M654.054 436.91c1.314-1.48 2.63-2.96 4.11-4.113 7.24-6.081 15.622-8.223 23.354-7.728 7.894.49 15.294 3.616 20.714 8.385 1.315 1.152 2.308 2.137 3.29 3.455l.655.657c1.48 1.975 2.795 3.945 3.783 5.92.987 1.976 1.808 3.95 2.302 5.92 2.469 10.033-1.476 19.737-8.554 27.137-.655.657-1.31 1.314-1.97 1.97 0 .167-.332.334-.493.495-1.154.985-2.302 1.809-3.456 2.47-6.085 3.94-13.314 5.092-20.06 4.274-6.74-.823-13.152-3.784-17.917-8.057-1.653-1.647-3.129-3.455-4.444-5.27-.82-1.474-1.647-2.96-2.463-4.6-.66-1.642-1.48-3.284-1.974-5.092-2.957-8.886-2.957-19.085 3.123-25.824zm8.554-4.113s-.167-.166-.167-.328c-.987.657-1.808 1.313-2.796 2.137-1.314 1.152-2.63 2.303-3.944 3.783-5.259 6.082-5.259 15.291-2.63 23.676.494 1.647 1.15 3.289 1.97 4.769a35.28 35.28 0 002.308 4.273v.167c1.148 1.647 2.468 3.283 3.944 4.602 4.438 4.106 10.357 6.738 16.609 7.562 3.616.495 7.233.333 10.684-.495-2.63-4.274-4.11-9.376-5.925-12.826-2.302-4.769-13.313-26.97-14.8-29.93-.327-.657 0-1.313.5-1.48.654-.328 1.314 0 1.475.657 1.476 1.975 13.32 24.994 15.128 29.93 1.642 3.622 3.123 8.552 5.919 12.992 1.974-.657 3.944-1.647 5.752-2.799.993-.656 1.975-1.313 2.963-2.136-.821-8.057-2.796-15.62-6.408-23.515-3.783-8.224-9.208-16.61-16.775-26.475-3.778.329-7.722 1.48-11.344 3.45l-.816.496c.494.49.655.984.816 1.48.166.161 1.154 1.808 1.48 2.136.328.329.328 1.152 0 1.48-.493.496-1.153.496-1.647 0-.493-.495-.654-.985-.82-1.313-.162-.323-1.315-1.964-1.476-2.293zm16.442-5.592c7.24 9.37 12.498 17.756 16.115 25.652 3.617 7.561 5.592 14.8 6.58 22.53 0-.162.165-.162.332-.33 6.579-7.071 10.19-15.952 7.894-25a32.24 32.24 0 00-1.97-5.591c-.993-1.809-2.141-3.617-3.622-5.425-.161-.334-.327-.495-.66-.824-.816-.985-1.803-1.97-2.957-2.96-5.098-4.602-11.999-7.562-19.238-7.89-.832-.162-1.653-.162-2.474-.162z" fill="#000" fill-rule="nonzero"/><path d="M655.478 543h44.382c5.149 0 10.14 2.826 10.14 8.136-.5 38.69-.667 77.875-.336 117.56 0 5.32-2.328 8.967-7.482 8.967l-48.538.331c-5.317.169-7.644-3.315-7.644-8.63V552.63c0-5.315 4.324-9.63 9.478-9.63z" fill="#5261AC"/><path d="M655.746 543H700.915c2.68.161 5.364.818 7.386 2.304 2.181 1.48 3.53 3.622 3.699 6.577v.334c-.34 19.241-.51 38.478-.51 57.886 0 19.398 0 38.968.17 58.538v.662c-.17 2.627-.838 4.769-2.016 6.41-1.507 1.809-3.36 2.8-6.05 2.96h-.668l-49.027.329h-.669c-2.685-.161-4.701-.985-6.05-2.627-1.347-1.641-2.01-3.783-2.18-6.41V553.7c0-2.966 1.178-5.592 3.19-7.567 2.01-1.82 4.7-3.133 7.556-3.133zm-.844 12.164c0-.495.51-.99 1.178-.99.674 0 1.178.495 1.178 1.157l-.17 2.96c-.334 21.702 0 44.894.17 67.586.334 14.962.504 29.764.504 43.742 0 .495-.504 1.151-1.178 1.151-.668 0-1.173-.656-1.173-1.151 0-13.978-.17-28.78-.34-43.742-.34-22.692-.673-45.88-.17-67.753v-2.96zm10.247.334c0-.662.668-1.152 1.172-.99.669 0 1.173.656 1.009 1.151v.162c-.165 1.813-.34 3.783-.504 5.759-.839 12.987-.669 27.95-.165 43.903 0 3.456.165 7.067.334 10.684.505 17.762 1.014 36.18.34 53.28 0 .495-.504.99-1.172.99-.674 0-1.179-.495-1.179-1.152.674-16.938.17-35.356-.34-53.118-.673-22.191-1.347-43.737.505-60.67zm11.074-.662c0-.657.504-1.147 1.178-1.147.669 0 1.178.49 1.178 1.147-.34 8.719-.51 17.433-.51 26.314a969.08 969.08 0 000 30.916v7.562c.17 16.61.675 33.38 1.343 50.324 0 .657-.504 1.152-1.172 1.152-.674 0-1.178-.495-1.178-1.152-.669-19.241-1.173-38.65-1.343-57.886-.17-19.237.006-38.317.504-57.23zm11.086-.818c0-.657.504-1.152 1.178-1.152.668 0 1.172.495 1.172 1.152v.161c-.668 19.732-.164 39.802.34 59.534.504 18.746 1.008 37.16.504 54.92 0 .663-.668 1.158-1.172 1.158-.674 0-1.179-.662-1.179-1.157.505-17.762 0-36.175-.504-54.76-.504-19.893-1.013-39.963-.34-59.695v-.161zm11.08-.824c0-.657.504-1.152 1.172-1.152.674 0 1.178.495 1.178 1.152-.164 8.875-.34 17.595-.504 26.476v38.639c.34 16.771.674 33.381 1.343 49.991 0 .657-.504 1.152-1.178 1.152-.669 0-1.173-.495-1.173-.99-.674-19.237-1.178-38.479-1.343-57.72-.17-19.237 0-38.312.504-57.548zm2.186-7.896h-44.83c-2.356 0-4.372.99-5.879 2.465-1.507 1.48-2.52 3.623-2.52 5.926v116.102c0 2.131.503 3.94 1.512 5.092 1.008 1.157 2.515 1.813 4.367 1.813h.669l49.026-.166s.34-.162.504-.162a5.756 5.756 0 004.368-1.97c1.008-1.319 1.512-2.966 1.512-5.097v-.662c-.17-19.57-.17-39.135-.17-58.538.17-19.403.34-38.812.504-58.048v-.167c0-2.131-1.008-3.617-2.685-4.769-1.512-1.151-3.863-1.808-6.044-1.808h-.334v-.01z" fill="#000" fill-rule="nonzero"/><path fill="#413000" d="M33.71 784H85l-35.989 68H29z"/><path d="M33.695 782H87l-.837 1.67-36.035 68.665-.339.665H28v-1.336l4.524-68.66.17-1.004h1zm49.448 1.664H34.871l-4.524 66.996h18.102l34.694-66.996z" fill="#000" fill-rule="nonzero"/><path fill="#413000" d="M694.922 785H645l34.587 67H699z"/><path d="M697.449 784H644l1.01 1.65 35.632 66.86.34.49H703l-.165-1.153-4.207-66.855V784h-1.18zm-49.582 1.65h48.403l4.207 65.216H682.32l-34.453-65.217z" fill="#000" fill-rule="nonzero"/><path d="M135.116 337.537c76.429-29.902 289.142-22.137 369.883-20.158 80.741 5.45 94.339 109.53 95.827 198.906 1.991 122.912-12.099 171.323-95 187.015-95.831 18.006-260.626 8.592-369.06-9.09-60.348-9.749-76.597-107.22-76.764-200.56-.32-126.87 49.087-145.871 75.114-156.113h0z" stroke="#000" stroke-width=".424" fill="#FFF"/></g></svg>